<?xml version="1.0" encoding="utf-8"?>
<!-- Generator: Adobe Illustrator 16.0.0, SVG Export Plug-In . SVG Version: 6.00 Build 0)  -->
<!DOCTYPE svg PUBLIC "-//W3C//DTD SVG 1.1//EN" "http://www.w3.org/Graphics/SVG/1.1/DTD/svg11.dtd">
<svg version="1.1" id="Capa_1" xmlns="http://www.w3.org/2000/svg" xmlns:xlink="http://www.w3.org/1999/xlink" x="0px" y="0px"
	 width="400.004px" height="400.004px" viewBox="0 0 400.004 400.004" enable-background="new 0 0 400.004 400.004"
	 xml:space="preserve">
<g>
	<path fill="#FFFFFF" d="M382.688,182.686H59.116l77.209-77.214c6.764-6.76,6.764-17.726,0-24.485
		c-6.764-6.764-17.73-6.764-24.484,0L5.073,187.757c-6.764,6.76-6.764,17.728,0,24.485l106.768,106.775
		c3.381,3.383,7.812,5.071,12.242,5.071s8.861-1.688,12.242-5.071c6.764-6.761,6.764-17.727,0-24.484l-77.209-77.219h323.571
		c9.562,0,17.316-7.752,17.316-17.314C400.004,190.438,392.251,182.686,382.688,182.686z"/>
</g>
</svg>
